<svg version="1.1" id="Layer_1" xmlns="http://www.w3.org/2000/svg" xmlns:xlink="http://www.w3.org/1999/xlink" x="0px" y="0px"
	 width="100%" viewBox="0 0 1024 672" enable-background="new 0 0 1024 672" xml:space="preserve">
<path fill="#000000" opacity="1.000000" stroke="none" 
	d="
M251.687988,333.945435 
	C253.338638,314.714844 256.055939,296.214783 263.061859,278.504547 
	C271.337646,257.584198 287.052643,244.980560 307.585815,237.686356 
	C312.489075,235.944519 316.382355,233.507065 319.606598,229.399200 
	C327.093964,219.859863 337.088104,213.591339 348.090454,208.869507 
	C351.886139,207.240509 354.690521,204.945389 356.983734,201.349258 
	C364.179016,190.065811 375.201782,183.566788 387.220795,178.560059 
	C406.395081,170.572662 426.548462,166.216934 446.917358,162.734055 
	C452.154175,161.838593 457.454071,161.304901 462.731476,160.658051 
	C464.576141,160.431961 466.442474,160.157730 467.915192,159.022263 
	C479.518677,150.075897 493.365692,148.973633 507.153259,147.878372 
	C528.652405,146.170471 549.603455,150.020920 570.444336,154.635223 
	C596.841370,160.479675 622.742188,167.804779 646.729309,180.707230 
	C655.576355,185.465973 663.893677,190.967026 670.760132,198.405426 
	C672.557678,200.352707 674.791077,201.145950 677.260742,201.796005 
	C693.533447,206.079437 709.645874,210.860413 724.856689,218.216995 
	C750.744568,230.737503 766.472839,251.855621 775.223694,278.589813 
	C781.841431,298.807251 782.538574,319.695282 781.588135,340.783081 
	C780.958862,354.744446 780.859924,368.709747 779.389893,382.645447 
	C776.070312,414.114563 762.484863,439.572144 737.037231,458.813019 
	C711.973938,477.763245 683.368042,488.546204 653.586731,497.159119 
	C627.623962,504.667725 601.391968,510.605988 574.457092,513.071594 
	C561.372070,514.269348 548.256958,515.305298 535.132080,515.864807 
	C512.512756,516.829041 489.906586,518.561890 467.242920,517.965210 
	C442.474640,517.313171 418.078033,514.812744 395.507935,503.246429 
	C386.270721,498.512695 377.871460,493.077728 374.002991,482.781982 
	C373.043396,480.228088 370.957062,479.638947 368.469543,479.300537 
	C338.912048,475.279846 311.551514,465.315338 287.581818,447.426514 
	C263.330963,429.327850 251.348251,404.516571 250.722626,374.344360 
	C250.446594,361.032013 250.360107,347.695251 251.687988,333.945435 
M264.956909,318.217926 
	C261.509460,316.982300 259.482697,317.356689 261.217377,321.666260 
	C262.896240,325.837006 264.638336,329.758728 269.130920,332.079895 
	C272.622986,333.884094 275.549713,336.805084 278.661499,339.311890 
	C279.939941,340.341797 281.257538,341.497070 280.228546,344.195831 
	C271.846008,343.262421 269.023071,332.937195 260.732666,331.570557 
	C259.224182,336.222900 264.636841,338.505035 263.664337,342.343628 
	C261.891876,343.478851 260.060822,341.505188 258.532410,343.239258 
	C257.299683,347.617279 262.888367,350.103577 262.190002,354.241058 
	C260.924011,356.095978 258.609619,353.651489 257.499908,356.158112 
	C257.204895,360.851685 262.851501,363.503235 263.214661,368.083099 
	C261.143829,369.463928 259.501587,367.040619 257.928650,368.673126 
	C256.561768,371.429077 258.358124,373.334045 259.861359,375.321838 
	C260.740051,376.483795 262.723145,378.056976 261.645355,379.056152 
	C257.849457,382.575134 260.180267,385.146179 262.309082,387.995819 
	C262.921356,388.815430 263.162537,389.949249 262.261902,390.740204 
	C259.753662,392.942963 261.669861,394.442963 262.904663,396.217743 
	C264.546814,398.578003 267.691895,399.935242 267.931030,403.557098 
	C264.145721,404.688049 262.924500,406.732910 265.809082,410.216370 
	C267.771240,409.893463 269.755402,408.902588 271.836395,410.443542 
	C274.909851,412.719421 278.264160,414.612061 281.416992,416.786591 
	C282.850037,417.774994 285.240112,418.841583 284.028595,420.938995 
	C282.543762,423.509644 280.389862,421.459229 278.888275,420.533875 
	C275.203491,418.263031 271.712646,415.677521 267.337067,412.662811 
	C269.095581,417.764496 271.559753,421.114929 274.147400,424.365540 
	C274.840607,425.236267 276.170563,426.563110 276.806274,426.368378 
	C283.480988,424.323822 287.024384,429.977081 291.859161,432.330811 
	C293.308472,433.036346 295.504639,433.580841 295.058319,436.260742 
	C291.650635,438.355377 289.095093,434.152191 285.085938,434.811066 
	C288.058655,439.240997 291.885590,441.731567 295.771912,444.126373 
	C296.240295,444.415039 297.371552,444.466003 297.609589,444.164490 
	C300.979675,439.895782 303.811768,443.438660 306.681152,444.804443 
	C309.658936,446.221893 312.498718,447.929291 315.787933,449.721954 
	C317.387604,445.527130 319.934113,446.431305 322.788818,447.720062 
	C332.508453,452.107910 342.463684,455.855438 352.891876,458.232910 
	C356.072052,458.957947 356.332092,458.905670 358.660309,456.793945 
	C336.129730,451.218445 336.129730,451.218445 334.842926,447.694305 
	C340.371002,447.505737 345.400635,449.448456 350.595703,450.193573 
	C355.602325,450.911621 360.750061,451.997833 365.289490,448.527222 
	C359.482208,446.018738 352.748413,449.182007 346.630920,444.618652 
	C352.894135,440.412903 361.119720,445.731415 366.264099,439.680084 
	C364.134399,436.873901 359.908691,439.695526 358.334137,436.205597 
	C359.788025,432.754120 364.482025,434.715759 366.045013,431.590210 
	C363.558075,427.886078 363.423248,427.622833 367.198608,425.689270 
	C373.230469,422.600067 376.988312,418.153198 378.369507,411.356079 
	C379.290985,406.821320 381.089661,402.442078 382.725250,398.079285 
	C388.438812,382.838715 395.388336,368.331543 407.522888,356.939728 
	C411.930420,352.802032 416.923706,349.515076 422.065002,346.408173 
	C423.193481,345.726257 424.568146,345.040863 424.408173,343.464661 
	C424.253143,341.937256 422.847260,341.398102 421.609344,340.907104 
	C420.687195,340.541351 419.707275,340.294495 418.733002,340.090729 
	C394.489838,335.020264 371.326019,326.718689 348.870209,316.421204 
	C333.870972,309.543060 318.856232,302.535400 306.925964,290.673401 
	C293.313049,277.138367 293.140503,264.556122 306.062439,250.476486 
	C307.214569,249.221146 309.166626,248.229233 308.186005,245.956100 
	C306.886505,244.895966 305.597992,245.358734 304.389404,245.923416 
	C293.225983,251.139420 283.339142,257.873566 275.932678,268.066956 
	C272.736603,272.465668 272.657867,276.363068 274.711182,281.018494 
	C275.773987,283.428131 277.915833,285.783173 276.600006,288.870148 
	C272.139465,289.329987 272.619202,283.860565 269.114166,282.804291 
	C267.296448,288.515656 273.284027,292.872253 271.846802,297.986816 
	C269.206604,298.964691 268.515717,295.840668 266.268280,296.500183 
	C266.268280,297.543518 266.032013,298.582886 266.309662,299.459412 
	C267.438446,303.022766 270.778412,306.799591 264.633850,309.246460 
	C263.729218,309.606720 264.259766,311.421692 264.729736,312.508606 
	C265.455322,314.186646 266.406647,315.788239 265.941986,318.013458 
	C265.941986,318.013458 265.615173,318.303497 264.956909,318.217926 
M504.499878,342.375336 
	C490.675964,342.349365 476.869324,342.486267 463.048828,343.280579 
	C429.872101,345.187439 405.957275,360.036530 392.764221,391.292023 
	C385.075073,409.508209 379.195038,428.198639 376.617676,447.750366 
	C375.252167,458.109070 375.132324,468.708099 378.932281,478.855072 
	C380.936890,484.207947 384.533661,487.899933 390.096863,490.364532 
	C389.441437,487.706116 384.896606,487.125763 387.111725,484.400604 
	C389.109253,481.943085 391.309418,484.772430 393.169586,485.845947 
	C400.428192,490.035065 408.172333,493.062256 416.112793,495.608551 
	C429.687347,499.961578 443.595673,502.129456 457.880310,501.987732 
	C460.433136,501.962402 463.676758,501.525665 464.996979,506.187073 
	C443.915710,507.784241 424.134430,503.608063 404.548096,497.752991 
	C416.613678,504.395844 429.903351,506.611359 443.141785,508.599304 
	C455.980011,510.527191 468.983093,510.263428 481.976013,510.483612 
	C506.339264,510.896423 530.529541,508.545868 554.799377,507.568939 
	C558.675659,507.412933 562.471985,507.252838 565.094910,503.054779 
	C566.936157,500.107819 573.804016,500.609009 576.666077,503.224304 
	C578.890686,505.257141 582.398193,505.638214 583.044250,503.370667 
	C584.911194,496.818481 590.493958,497.148560 594.957153,496.097260 
	C636.155334,486.392975 676.631287,474.252960 716.636292,460.499908 
	C719.944763,459.362518 724.519165,459.392609 724.494995,453.864136 
	C724.491394,453.054169 726.327148,452.037201 727.483398,451.458984 
	C730.754822,449.822968 734.141968,448.419678 737.432129,446.819000 
	C739.876892,445.629578 742.562683,444.665558 743.981873,442.060120 
	C742.397278,440.617859 740.184509,442.077637 738.998901,439.539398 
	C743.777832,434.056549 752.401855,432.958344 756.540222,426.416626 
	C754.387024,424.034546 751.482849,427.382080 749.569336,424.153961 
	C752.983643,419.010895 760.962708,417.931915 763.186462,411.541290 
	C761.263611,409.510132 759.023560,412.383881 757.611084,409.760406 
	C759.420166,404.636902 766.721191,403.326691 767.491699,397.771057 
	C766.288940,395.674805 764.090393,397.057190 763.337585,395.260498 
	C763.400574,393.366699 764.894104,392.454437 766.066895,391.307800 
	C767.375977,390.027954 768.717285,388.769165 769.911316,387.386200 
	C771.634827,385.389954 773.106201,382.998779 770.660522,380.806824 
	C768.138184,378.546234 769.284851,376.811127 770.631104,374.768982 
	C771.908203,372.831665 773.957153,370.416656 772.174255,368.447174 
	C769.144714,365.100739 771.023987,362.871338 772.765198,360.154114 
	C774.546875,357.373688 776.076233,354.576630 771.606323,352.425507 
	C769.581787,351.451233 770.702271,349.596344 771.567993,348.109680 
	C775.081177,342.076782 775.072937,342.071991 769.928955,339.544769 
	C768.214172,335.182007 779.392761,330.684387 769.162964,326.630157 
	C769.015259,321.717407 774.176453,318.204010 773.343994,312.660065 
	C769.324280,313.677734 769.660889,320.173248 764.020264,318.918884 
	C764.822937,312.279572 770.632996,307.666779 770.909607,300.442352 
	C767.099609,303.333771 767.043884,308.935822 761.469177,310.194031 
	C760.861755,302.065460 767.690125,296.158264 766.930786,288.255096 
	C762.834290,292.554321 763.498230,300.024384 756.834290,302.550049 
	C755.258240,298.798859 757.436584,296.672607 758.207642,294.250763 
	C759.015869,291.712189 760.071167,289.240479 760.708801,286.662964 
	C761.282166,284.345276 762.706482,281.934723 761.156006,279.060394 
	C757.453308,283.406006 758.159729,290.577118 750.700989,291.612091 
	C755.870911,280.052124 758.569946,268.396912 753.457703,256.429596 
	C747.767212,243.108704 736.063232,230.954041 729.372314,231.160187 
	C729.702393,233.630173 731.236755,235.404633 732.567322,237.251205 
	C737.270996,243.779419 741.125427,250.720642 743.561218,258.444641 
	C746.821960,268.784424 745.096558,278.139252 738.520935,286.696442 
	C735.757507,290.292664 732.531128,293.397278 728.945251,296.146393 
	C719.097473,303.696106 708.311218,309.728790 696.941101,314.511078 
	C652.368225,333.258484 605.848694,342.901642 557.472717,343.123657 
	C540.149963,343.203156 522.824219,342.646271 504.499878,342.375336 
M649.137634,247.618256 
	C652.965576,246.902328 656.295654,244.890533 659.512512,242.970520 
	C675.797546,233.250793 681.245667,216.801331 666.828430,203.827713 
	C651.041382,189.621460 632.759888,180.024353 612.861450,173.299240 
	C595.505737,167.433517 577.683594,163.276794 559.856689,159.044220 
	C540.820129,154.524399 521.672485,153.415970 502.331940,154.516754 
	C494.221558,154.978363 486.118958,156.422913 478.450653,159.431442 
	C475.526276,160.578766 472.552795,161.647827 470.634155,164.506195 
	C465.141937,172.688400 460.324493,181.237961 456.293701,190.226807 
	C455.472504,192.058136 454.229248,194.763641 455.582153,195.893814 
	C459.614319,199.262161 460.164429,206.145630 466.787842,206.859558 
	C468.395355,207.032837 469.912506,207.971893 471.491638,208.497406 
	C473.740570,209.245773 475.781830,210.028641 473.908051,213.004318 
	C473.114044,214.265259 473.753052,215.209991 474.821747,215.950378 
	C475.822632,216.643784 476.889191,216.399277 477.536804,215.608505 
	C480.977600,211.407242 485.241547,213.817657 489.182373,214.148407 
	C491.476929,214.340958 492.933014,215.355286 493.027771,218.319855 
	C493.137939,221.767776 495.167999,223.557159 499.064178,222.331757 
	C503.529999,220.927170 507.699860,221.715500 510.671326,225.564026 
	C512.667297,228.149078 514.674316,228.448334 516.951538,226.376099 
	C521.502625,222.234634 527.169373,222.933243 531.458557,225.120758 
	C535.993958,227.433853 540.194275,227.715027 544.820190,227.483444 
	C546.142761,227.417236 547.515442,227.107742 548.326355,228.408157 
	C549.153076,231.045944 545.821594,231.296112 545.609436,233.543396 
	C552.368835,234.498993 558.947693,233.773407 565.481384,232.609268 
	C575.164612,230.884003 584.871399,229.076080 593.264465,223.492157 
	C599.419312,219.397278 601.655884,213.797821 599.370361,207.662048 
	C597.693298,203.160095 595.533875,198.835861 592.338745,195.083389 
	C583.732849,184.976471 571.885925,181.198044 559.665894,178.135681 
	C558.290955,177.791122 556.634033,177.505219 555.776184,179.301651 
	C561.687378,192.380096 558.537476,199.690002 544.322693,202.342285 
	C526.943298,205.585068 510.171539,202.660248 494.724915,193.695724 
	C490.783569,191.408340 487.579712,188.238358 485.722137,183.925934 
	C483.081329,177.795258 485.395844,169.935379 490.838654,167.321243 
	C502.662323,161.642441 515.277283,159.844803 528.238281,160.413208 
	C539.891602,160.924286 551.142273,163.844254 562.551331,166.071732 
	C576.810425,168.855621 589.933594,174.075775 603.123047,179.613998 
	C612.395752,183.507599 619.905212,189.416290 626.155273,197.275162 
	C637.106018,211.044601 635.022217,221.809708 619.453735,229.954895 
	C617.243103,231.111450 614.967041,232.176773 612.639038,233.069778 
	C595.878235,239.499054 578.417603,242.718719 560.605103,244.293808 
	C543.614258,245.796234 526.691589,244.500153 509.721710,243.510910 
	C485.203705,242.081635 461.048950,238.665802 437.410858,232.040939 
	C425.338593,228.657532 413.752899,223.955490 403.683655,216.196716 
	C393.575043,208.407562 393.550720,196.085449 403.687927,188.281082 
	C410.137054,183.316071 417.706451,180.842896 425.429871,178.566010 
	C434.594360,175.864304 443.972473,174.887543 453.394562,173.934570 
	C455.398285,173.731918 457.779907,173.026382 457.419006,170.453522 
	C457.030090,167.681000 454.474457,168.203003 452.559937,168.505096 
	C436.114960,171.100098 419.716949,174.031097 403.887421,179.292770 
	C390.421265,183.768829 377.200562,188.892258 367.003693,199.461136 
	C364.003448,202.570801 362.581787,206.143524 363.856628,210.366531 
	C365.933228,217.245605 369.891541,222.856140 375.420319,227.504883 
	C380.326263,231.629898 385.525299,235.259399 391.142365,238.307724 
	C394.053894,239.887772 398.102173,240.239960 399.786591,243.028564 
	C403.204071,248.686356 410.567230,245.348618 414.097717,250.087952 
	C423.150757,249.480118 430.249847,255.518372 438.650452,257.332977 
	C445.933319,258.906158 453.930298,258.393188 460.237305,263.512115 
	C460.439575,263.676270 460.941071,263.660858 461.205902,263.531006 
	C467.060272,260.659729 472.786102,262.856964 478.723145,263.437927 
	C494.824280,265.013428 511.024658,265.911957 527.204163,264.605377 
	C530.145447,264.367889 533.095459,266.321411 535.371887,265.250671 
	C540.142883,263.006653 544.995544,264.767334 549.773987,264.123444 
	C555.698853,263.325165 561.917847,263.394867 568.011841,263.193817 
	C581.267273,262.756470 594.075195,258.601410 607.290710,258.132935 
	C611.545654,257.982117 615.554016,258.055298 619.213135,255.747971 
	C622.852478,253.453125 627.308777,254.729752 630.676331,253.609451 
	C636.554504,251.653931 642.407532,249.556610 649.137634,247.618256 
M547.065247,295.742920 
	C538.249329,296.071594 529.433533,296.673889 520.617554,296.675293 
	C498.295166,296.678864 476.053864,295.226196 453.911865,292.307556 
	C431.815430,289.394928 409.638458,286.945129 388.509674,279.182190 
	C374.363373,273.984650 360.717896,267.930878 349.440308,257.565552 
	C339.329773,248.272827 337.440552,238.580002 343.239655,226.277283 
	C344.181763,224.278519 345.838867,222.302353 344.703583,219.874756 
	C342.949951,218.750870 341.700714,219.850327 340.451813,220.570862 
	C334.927826,223.757843 330.180603,227.854416 325.832520,232.536423 
	C315.030304,244.168182 317.531036,257.106506 327.374146,266.602112 
	C334.281860,273.265930 341.760498,279.185699 350.739227,283.098846 
	C363.791168,288.787140 377.018860,293.835236 390.774353,297.625946 
	C399.312042,299.978790 408.146698,300.115143 416.720062,302.282990 
	C424.234894,304.183167 432.022003,305.685577 439.700012,306.426697 
	C448.773254,307.302490 457.853729,308.363861 466.943085,309.167297 
	C490.484070,311.248047 514.056824,311.660370 537.656738,312.035950 
	C552.290649,312.268829 566.508118,308.175415 581.288757,308.945801 
	C587.841125,309.287354 594.962036,306.836029 601.718384,305.440491 
	C612.561707,303.200836 623.529114,301.651093 634.307312,299.328827 
	C651.455566,295.634033 668.408081,290.915009 684.806213,284.427216 
	C690.136353,282.318420 695.202332,279.651276 700.471497,277.425995 
	C707.541443,274.440277 712.568604,268.204407 717.991089,262.852386 
	C725.902405,255.043884 726.583740,245.085464 721.003723,235.473846 
	C713.906799,223.249237 702.587952,217.117752 689.892334,212.735962 
	C688.082031,212.111176 686.090210,210.651749 684.320557,212.502197 
	C682.449402,214.458801 684.216614,216.296494 685.154724,217.908417 
	C688.338745,223.379532 691.419373,228.865433 693.562439,234.871307 
	C697.714172,246.506393 694.316162,257.180603 684.136169,264.162415 
	C677.616699,268.633698 670.496338,271.852783 663.040283,274.286102 
	C625.640503,286.491699 587.066833,292.417023 547.065247,295.742920 
M629.496765,492.140778 
	C620.434814,494.630127 611.136780,496.341248 602.401733,499.908478 
	C611.361755,501.249115 687.743042,479.403595 692.282104,474.100494 
	C671.567322,479.856750 651.222534,486.943146 629.496765,492.140778 
M527.594238,176.236221 
	C525.667358,176.092010 524.074646,176.953049 522.531799,177.939575 
	C519.683655,179.760803 519.479370,182.139557 521.450989,184.628616 
	C523.571960,187.306396 532.350159,188.718536 535.451416,187.077042 
	C536.855347,186.333939 537.992981,185.399628 537.480347,183.597626 
	C537.023193,181.990891 535.894226,181.190582 534.189697,181.130356 
	C532.430115,181.068161 530.572632,181.839325 529.185181,180.796799 
	C527.829224,179.348709 529.584595,177.592331 527.594238,176.236221 
z"/>
<path fill="#000000" opacity="1.000000" stroke="none" 
	d="
M535.000000,361.268921 
	C518.739685,360.799469 502.881683,362.074219 485.982971,359.425262 
	C490.350739,355.733002 494.242310,355.985321 497.974365,355.963928 
	C519.279907,355.841766 540.591797,356.096375 561.890381,355.667542 
	C586.178162,355.178497 610.317322,352.814331 634.198059,348.161865 
	C636.611328,347.691742 639.064270,347.159607 641.899780,348.018341 
	C640.667969,351.325073 637.611694,351.580200 635.142944,352.240173 
	C623.547424,355.340149 611.629272,356.729156 599.747986,358.019989 
	C578.408325,360.338318 556.998413,361.825714 535.000000,361.268921 
z"/>
<path fill="#000000" opacity="1.000000" stroke="none" 
	d="
M551.968506,370.114868 
	C532.024658,369.789032 512.567017,370.960480 493.125549,369.750732 
	C492.490662,369.711212 491.989471,369.116913 492.002319,366.875427 
	C522.949158,364.137573 554.058960,365.193451 585.853821,364.692261 
	C582.752441,369.219360 576.227356,370.097687 551.968506,370.114868 
z"/>
<path fill="#000000" opacity="1.000000" stroke="none" 
	d="
M721.953979,315.947571 
	C730.236206,309.979889 737.698181,303.618561 744.327148,296.309357 
	C745.429810,295.093597 746.657410,293.300171 748.409790,294.632843 
	C750.173828,295.974487 748.866699,297.770325 747.862732,299.017334 
	C738.854004,310.207306 727.745605,318.827271 715.053589,325.449738 
	C713.748657,326.130615 712.240295,326.620758 710.319275,324.849518 
	C712.809082,320.323669 718.094910,319.245178 721.953979,315.947571 
z"/>
<path fill="#000000" opacity="1.000000" stroke="none" 
	d="
M557.474060,377.043793 
	C553.659546,380.600891 548.885803,379.594940 544.597839,379.815125 
	C534.327209,380.342499 524.015930,380.084229 513.721069,380.127441 
	C511.892487,380.135132 510.074097,380.037872 508.617950,378.359619 
	C509.750366,375.855286 512.141846,375.930176 514.112122,375.875671 
	C527.051697,375.517792 539.995667,375.309113 552.939026,375.105804 
	C554.571899,375.080170 556.306152,375.093872 557.474060,377.043793 
z"/>
<path fill="#000000" opacity="1.000000" stroke="none" 
	d="
M523.539062,390.125610 
	C521.774414,389.989746 520.415466,389.938263 519.612854,388.604309 
	C523.002014,384.620422 544.238892,383.656555 552.044434,387.997345 
	C542.104431,391.601471 532.886353,389.477173 523.539062,390.125610 
z"/>
<path fill="#000000" opacity="1.000000" stroke="none" 
	d="
M699.262573,333.550171 
	C696.120728,334.645538 693.325073,335.657959 690.466370,336.440247 
	C689.362061,336.742432 688.041626,336.515686 687.538940,335.193054 
	C687.132568,334.123840 687.697144,333.049530 688.628174,332.698059 
	C693.277344,330.943024 697.799438,328.582916 703.074097,328.542633 
	C703.281311,331.702454 701.155090,332.312836 699.262573,333.550171 
z"/>
<path fill="#000000" opacity="1.000000" stroke="none" 
	d="
M528.042175,399.317749 
	C526.507568,398.917847 525.393738,398.573578 525.224609,396.311829 
	C531.219543,395.795654 537.138245,393.973541 544.641724,396.630249 
	C538.702393,400.375732 533.625549,400.159393 528.042175,399.317749 
z"/>
<path fill="#000000" opacity="1.000000" stroke="none" 
	d="
M476.699646,503.866028 
	C481.330048,504.146057 485.896973,502.412598 489.845337,505.679260 
	C486.387146,508.904510 478.948212,509.303894 473.705597,506.762573 
	C473.329865,504.723083 474.946777,504.448364 476.699646,503.866028 
z"/>
<path fill="#000000" opacity="1.000000" stroke="none" 
	d="
M470.067688,356.737457 
	C473.404572,357.165192 476.831482,355.449951 479.745087,359.638672 
	C473.155701,360.815582 467.361481,360.743896 460.579224,359.552185 
	C463.720795,356.366852 466.834320,357.174774 470.067688,356.737457 
z"/>
<path fill="#000000" opacity="1.000000" stroke="none" 
	d="
M599.642334,367.250610 
	C596.866882,367.125763 594.343933,367.961487 592.116272,366.305420 
	C594.651428,362.918518 601.941101,362.005615 605.475464,364.424255 
	C604.421448,366.807770 602.093933,366.724274 599.642334,367.250610 
z"/>
<path fill="#000000" opacity="1.000000" stroke="none" 
	d="
M750.553833,311.510010 
	C748.352112,313.038269 746.686707,315.214386 743.372070,313.798279 
	C744.924927,309.256134 748.732971,308.002502 752.364319,306.207916 
	C753.524902,308.749390 751.635986,309.817505 750.553833,311.510010 
z"/>
<path fill="#000000" opacity="1.000000" stroke="none" 
	d="
M530.555054,402.283905 
	C533.687317,400.740082 536.187866,400.689514 538.109558,404.066711 
	C535.981445,406.487244 533.481079,406.680023 530.884094,405.684540 
	C529.404663,405.117432 529.044067,403.846771 530.555054,402.283905 
z"/>
<path fill="#000000" opacity="1.000000" stroke="none" 
	d="
M284.256104,307.719360 
	C287.365509,311.066895 291.417145,313.128021 293.056274,317.434631 
	C287.435333,318.833984 272.988037,306.244324 273.278564,299.887238 
	C278.152161,300.778503 280.301483,305.303528 284.256104,307.719360 
z"/>
<path fill="#000000" opacity="1.000000" stroke="none" 
	d="
M296.248230,310.083740 
	C290.304840,307.959869 285.518341,304.768799 281.709747,300.207642 
	C280.771454,299.083954 279.600708,297.660004 280.954071,296.250671 
	C282.300354,294.848694 283.669312,295.946625 284.911072,296.840393 
	C288.949158,299.746796 293.071747,302.541595 297.019653,305.565002 
	C298.967072,307.056396 301.016571,308.992615 296.248230,310.083740 
z"/>
<path fill="#000000" opacity="1.000000" stroke="none" 
	d="
M266.103149,317.865967 
	C273.481354,321.467194 278.941376,327.042267 284.259491,333.716187 
	C279.086914,334.745026 268.172974,325.398651 265.653381,318.656494 
	C265.615173,318.303497 265.941986,318.013458 266.103149,317.865967 
z"/>
<path fill="#000000" opacity="1.000000" stroke="none" 
	d="
M269.429047,311.713196 
	C269.698944,310.218475 270.637665,309.429321 271.564026,310.022430 
	C276.919067,313.451019 281.599945,317.576569 284.154297,323.813843 
	C277.706879,321.844177 272.979156,317.741608 269.429047,311.713196 
z"/>
<path fill="#000000" opacity="1.000000" stroke="none" 
	d="
M270.824768,363.210571 
	C268.301483,360.921844 265.455017,359.344818 264.493347,355.996277 
	C269.744202,355.555237 279.423615,363.024902 280.704865,368.532990 
	C276.126770,369.240906 274.217407,365.130066 270.824768,363.210571 
z"/>
<path fill="#000000" opacity="1.000000" stroke="none" 
	d="
M272.226654,351.818878 
	C270.110626,349.310455 266.760956,348.058044 266.780212,343.111938 
	C272.259796,345.833038 276.258240,349.219971 280.047272,352.886566 
	C280.637878,353.458069 280.587646,354.421539 280.003510,355.158020 
	C279.400757,355.917969 278.571686,355.915039 277.760498,355.650360 
	C275.662109,354.965729 274.145294,353.404938 272.226654,351.818878 
z"/>
<path fill="#000000" opacity="1.000000" stroke="none" 
	d="
M298.993835,318.152588 
	C302.690216,319.199554 305.554077,321.145508 308.499237,322.921539 
	C309.350250,323.434723 310.100922,324.257568 309.774536,325.360260 
	C309.470551,326.387146 308.472534,327.124420 307.515259,326.917419 
	C303.404724,326.028503 299.783478,324.133484 297.266022,320.670319 
	C296.363007,319.428040 297.351624,318.562500 298.993835,318.152588 
z"/>
<path fill="#000000" opacity="1.000000" stroke="none" 
	d="
M279.391235,377.119965 
	C279.080658,378.304230 278.448853,378.828125 277.535126,378.814453 
	C273.872711,378.759735 267.674042,373.365570 266.496643,368.644714 
	C271.905762,370.166748 275.846100,373.108643 279.391235,377.119965 
z"/>
<path fill="#000000" opacity="1.000000" stroke="none" 
	d="
M273.261719,382.728546 
	C275.508392,384.496277 278.415558,385.128235 278.985291,388.188843 
	C274.071564,389.689575 267.649963,385.600647 266.056396,380.030640 
	C269.177185,378.664337 270.785706,381.430176 273.261719,382.728546 
z"/>
<path fill="#000000" opacity="1.000000" stroke="none" 
	d="
M276.046143,395.827209 
	C277.419586,397.383087 280.696106,398.054321 278.685211,400.449646 
	C277.050354,402.397034 274.991791,400.543976 273.445770,399.385590 
	C270.869873,397.455505 268.027069,395.699402 266.616241,392.094757 
	C270.944031,391.040955 272.932709,394.382721 276.046143,395.827209 
z"/>
<path fill="#000000" opacity="1.000000" stroke="none" 
	d="
M314.532745,317.221008 
	C315.540192,318.766296 315.843353,319.969025 314.001007,320.580078 
	C312.163910,321.189423 305.164001,317.691589 304.739777,315.856262 
	C304.238922,313.689606 305.309723,312.538696 307.430237,313.203888 
	C309.930115,313.988098 312.290833,315.203308 314.532745,317.221008 
z"/>
<path fill="#000000" opacity="1.000000" stroke="none" 
	d="
M319.717712,320.506897 
	C323.042389,319.738739 325.306671,321.588898 327.722870,322.867676 
	C328.770203,323.421967 329.423676,324.448944 328.864990,325.770630 
	C328.512848,326.603668 327.749451,327.265167 326.954620,326.974731 
	C323.736877,325.799072 319.803925,325.382050 319.717712,320.506897 
z"/>
<path fill="#000000" opacity="1.000000" stroke="none" 
	d="
M299.146973,424.823456 
	C300.557159,425.892120 301.579529,426.867462 300.499664,428.324554 
	C299.686554,429.421753 298.432861,429.404297 297.341919,428.830078 
	C294.518311,427.343842 291.200378,426.385254 289.874756,422.577454 
	C293.612305,421.086609 296.024445,423.691742 299.146973,424.823456 
z"/>
<path fill="#000000" opacity="1.000000" stroke="none" 
	d="
M279.483337,407.486694 
	C280.905212,408.588318 282.368774,409.310822 281.473663,411.769958 
	C277.236298,411.077332 273.916992,408.983215 270.541992,405.533813 
	C274.510590,403.584503 276.687012,406.125885 279.483337,407.486694 
z"/>
</svg>